<mxfile host="app.diagrams.net" modified="2023-07-01T21:38:37.031Z" agent="Mozilla/5.0 (X11; Ubuntu; Linux x86_64; rv:109.0) Gecko/20100101 Firefox/114.0" etag="jmfsz8P-ikCFKNVBhlhy" version="21.5.2" type="device">
  <diagram name="Page-1" id="WrtmoV9ny_IJdTC_MbwY">
    <mxGraphModel dx="899" dy="621" grid="1" gridSize="10" guides="1" tooltips="1" connect="1" arrows="1" fold="1" page="1" pageScale="1" pageWidth="850" pageHeight="1100" math="0" shadow="0">
      <root>
        <mxCell id="0" />
        <mxCell id="1" parent="0" />
        <mxCell id="uwwBJBZ8vMVv8G7QtI5B-1" value="&lt;font style=&quot;font-size: 16px;&quot; face=&quot;Courier New&quot;&gt;NN Layer&lt;br&gt;&lt;/font&gt;" style="rounded=1;whiteSpace=wrap;html=1;opacity=60;fillColor=#1ba1e2;fontColor=#ffffff;strokeColor=#006EAF;" vertex="1" parent="1">
          <mxGeometry x="40" y="110" width="160" height="40" as="geometry" />
        </mxCell>
        <mxCell id="uwwBJBZ8vMVv8G7QtI5B-3" value="&lt;font style=&quot;font-size: 16px;&quot; face=&quot;Courier New&quot;&gt;x&lt;/font&gt;" style="text;html=1;strokeColor=none;fillColor=none;align=center;verticalAlign=middle;whiteSpace=wrap;rounded=0;fontColor=#FFFFFF;" vertex="1" parent="1">
          <mxGeometry x="90" y="30" width="60" height="30" as="geometry" />
        </mxCell>
        <mxCell id="uwwBJBZ8vMVv8G7QtI5B-5" value="&lt;font style=&quot;font-size: 16px;&quot; face=&quot;Courier New&quot;&gt;F(x)&lt;/font&gt;" style="text;html=1;strokeColor=none;fillColor=none;align=center;verticalAlign=middle;whiteSpace=wrap;rounded=0;fontColor=#FFFFFF;" vertex="1" parent="1">
          <mxGeometry x="90" y="190" width="60" height="30" as="geometry" />
        </mxCell>
        <mxCell id="uwwBJBZ8vMVv8G7QtI5B-13" value="" style="endArrow=classic;html=1;rounded=0;fillColor=#1ba1e2;strokeColor=#006EAF;strokeWidth=3;" edge="1" parent="1">
          <mxGeometry width="50" height="50" relative="1" as="geometry">
            <mxPoint x="119.5" y="70" as="sourcePoint" />
            <mxPoint x="119.5" y="110" as="targetPoint" />
          </mxGeometry>
        </mxCell>
        <mxCell id="uwwBJBZ8vMVv8G7QtI5B-14" value="" style="endArrow=classic;html=1;rounded=0;fillColor=#1ba1e2;strokeColor=#006EAF;strokeWidth=3;" edge="1" parent="1">
          <mxGeometry width="50" height="50" relative="1" as="geometry">
            <mxPoint x="119.5" y="150" as="sourcePoint" />
            <mxPoint x="119.5" y="190" as="targetPoint" />
          </mxGeometry>
        </mxCell>
        <mxCell id="uwwBJBZ8vMVv8G7QtI5B-15" value="&lt;font style=&quot;font-size: 16px;&quot; face=&quot;Courier New&quot;&gt;NN Layer&lt;br&gt;&lt;/font&gt;" style="rounded=1;whiteSpace=wrap;html=1;opacity=60;fillColor=#1ba1e2;fontColor=#ffffff;strokeColor=#006EAF;" vertex="1" parent="1">
          <mxGeometry x="310" y="110" width="160" height="40" as="geometry" />
        </mxCell>
        <mxCell id="uwwBJBZ8vMVv8G7QtI5B-16" value="&lt;font style=&quot;font-size: 16px;&quot; face=&quot;Courier New&quot;&gt;x&lt;/font&gt;" style="text;html=1;strokeColor=none;fillColor=none;align=center;verticalAlign=middle;whiteSpace=wrap;rounded=0;fontColor=#FFFFFF;" vertex="1" parent="1">
          <mxGeometry x="360" y="30" width="60" height="30" as="geometry" />
        </mxCell>
        <mxCell id="uwwBJBZ8vMVv8G7QtI5B-17" value="&lt;font style=&quot;font-size: 16px;&quot; face=&quot;Courier New&quot;&gt;F(x)&lt;/font&gt;" style="text;html=1;strokeColor=none;fillColor=none;align=center;verticalAlign=middle;whiteSpace=wrap;rounded=0;fontColor=#FFFFFF;" vertex="1" parent="1">
          <mxGeometry x="360" y="250" width="60" height="30" as="geometry" />
        </mxCell>
        <mxCell id="uwwBJBZ8vMVv8G7QtI5B-18" value="" style="endArrow=classic;html=1;rounded=0;fillColor=#1ba1e2;strokeColor=#006EAF;strokeWidth=3;" edge="1" parent="1">
          <mxGeometry width="50" height="50" relative="1" as="geometry">
            <mxPoint x="389.5" y="70" as="sourcePoint" />
            <mxPoint x="389.5" y="110" as="targetPoint" />
          </mxGeometry>
        </mxCell>
        <mxCell id="uwwBJBZ8vMVv8G7QtI5B-19" value="" style="endArrow=classic;html=1;rounded=0;fillColor=#1ba1e2;strokeColor=#006EAF;strokeWidth=3;" edge="1" parent="1">
          <mxGeometry width="50" height="50" relative="1" as="geometry">
            <mxPoint x="389.5" y="150" as="sourcePoint" />
            <mxPoint x="389.5" y="190" as="targetPoint" />
          </mxGeometry>
        </mxCell>
        <mxCell id="uwwBJBZ8vMVv8G7QtI5B-23" value="&lt;font style=&quot;font-size: 16px;&quot; face=&quot;Courier New&quot;&gt;+&lt;/font&gt;" style="ellipse;whiteSpace=wrap;html=1;aspect=fixed;fillColor=#1ba1e2;fontColor=#ffffff;strokeColor=#006EAF;opacity=60;" vertex="1" parent="1">
          <mxGeometry x="380" y="190" width="20" height="20" as="geometry" />
        </mxCell>
        <mxCell id="uwwBJBZ8vMVv8G7QtI5B-24" value="" style="endArrow=classic;html=1;rounded=0;fillColor=#1ba1e2;strokeColor=#006EAF;strokeWidth=3;" edge="1" parent="1">
          <mxGeometry width="50" height="50" relative="1" as="geometry">
            <mxPoint x="389.5" y="210" as="sourcePoint" />
            <mxPoint x="389.5" y="250" as="targetPoint" />
          </mxGeometry>
        </mxCell>
        <mxCell id="uwwBJBZ8vMVv8G7QtI5B-25" value="" style="curved=1;endArrow=classic;html=1;rounded=0;entryX=1;entryY=0.5;entryDx=0;entryDy=0;fillColor=#1ba1e2;strokeColor=#006EAF;strokeWidth=3;" edge="1" parent="1" target="uwwBJBZ8vMVv8G7QtI5B-23">
          <mxGeometry width="50" height="50" relative="1" as="geometry">
            <mxPoint x="390" y="80" as="sourcePoint" />
            <mxPoint x="590" y="30" as="targetPoint" />
            <Array as="points">
              <mxPoint x="540" y="80" />
              <mxPoint x="540" y="200" />
            </Array>
          </mxGeometry>
        </mxCell>
        <mxCell id="uwwBJBZ8vMVv8G7QtI5B-26" value="&lt;font style=&quot;font-size: 16px;&quot; face=&quot;Courier New&quot;&gt;f(x)&lt;/font&gt;" style="text;html=1;strokeColor=none;fillColor=none;align=center;verticalAlign=middle;whiteSpace=wrap;rounded=0;fontColor=#FFFFFF;" vertex="1" parent="1">
          <mxGeometry x="330" y="155" width="60" height="30" as="geometry" />
        </mxCell>
      </root>
    </mxGraphModel>
  </diagram>
</mxfile>
